<svg xmlns="http://www.w3.org/2000/svg" width="1200" height="630" viewBox="0 0 1200 630" role="img" aria-label="Saini Driving School">
  <rect width="1200" height="630" fill="#ffffff"/>
  <rect x="72" y="72" width="1056" height="486" rx="44" fill="#EFF6FF" stroke="#DBEAFE" stroke-width="3"/>
  <circle cx="920" cy="214" r="110" fill="#2563EB" opacity="0.12"/>
  <circle cx="1010" cy="410" r="150" fill="#2563EB" opacity="0.08"/>
  <text x="120" y="198" fill="#2563EB" font-family="Arial, Helvetica, sans-serif" font-size="34" font-weight="700" letter-spacing="4">SAINI DRIVING SCHOOL</text>
  <text x="120" y="292" fill="#1D1D1F" font-family="Arial, Helvetica, sans-serif" font-size="70" font-weight="700">Learn Safe Driving</text>
  <text x="120" y="370" fill="#1D1D1F" font-family="Arial, Helvetica, sans-serif" font-size="70" font-weight="700">in Batala, Punjab</text>
  <text x="120" y="452" fill="#4B5563" font-family="Arial, Helvetica, sans-serif" font-size="32">Certified instructors, road practice, and road test preparation.</text>
  <rect x="120" y="488" width="292" height="58" rx="29" fill="#2563EB"/>
  <text x="150" y="527" fill="#ffffff" font-family="Arial, Helvetica, sans-serif" font-size="25" font-weight="700">+91 98147 12236</text>
  <g transform="translate(835 250)">
    <rect x="0" y="90" width="230" height="58" rx="29" fill="#2563EB"/>
    <circle cx="48" cy="154" r="26" fill="#1D1D1F"/>
    <circle cx="182" cy="154" r="26" fill="#1D1D1F"/>
    <path d="M38 90c17-58 59-91 107-91s84 33 101 91" fill="none" stroke="#1D1D1F" stroke-width="18" stroke-linecap="round"/>
    <path d="M78 48h124l-23-48H102L78 48Z" fill="#DBEAFE" stroke="#2563EB" stroke-width="8"/>
  </g>
</svg>
